<svg xmlns="http://www.w3.org/2000/svg" xmlns:xlink="http://www.w3.org/1999/xlink" width="500" zoomAndPan="magnify" viewBox="0 0 375 374.999991" height="500" preserveAspectRatio="xMidYMid meet" version="1.0"><defs><g/><clipPath id="082584754f"><path d="M 116 62 L 327.351562 62 L 327.351562 298 L 116 298 Z M 116 62 " clip-rule="nonzero"/></clipPath><clipPath id="59ad6e6fe7"><path d="M 47.601562 58 L 71 58 L 71 298 L 47.601562 298 Z M 47.601562 58 " clip-rule="nonzero"/></clipPath></defs><g clip-path="url(#082584754f)"><path fill="#ffffff" d="M 304.296875 110.316406 L 304.296875 297.066406 L 327.386719 297.066406 L 327.386719 62.78125 L 304.296875 81.117188 L 218.734375 146.988281 L 211.941406 152.421875 L 199.71875 161.929688 L 190.890625 168.71875 L 188.175781 166.679688 L 116.871094 110.996094 L 116.871094 140.875 L 171.195312 183.660156 L 188.175781 196.5625 L 190.890625 198.597656 L 209.90625 183.660156 L 211.941406 182.300781 L 218.734375 176.867188 L 237.746094 161.929688 Z M 304.296875 110.316406 " fill-opacity="1" fill-rule="evenodd"/></g><path fill="#ffffff" d="M 82.238281 85.191406 L 82.238281 297.066406 L 106.003906 297.066406 L 106.003906 89.265625 L 188.175781 153.101562 L 188.175781 123.21875 L 106.003906 60.0625 L 82.238281 41.730469 Z M 82.238281 85.191406 " fill-opacity="1" fill-rule="evenodd"/><g clip-path="url(#59ad6e6fe7)"><path fill="#ffffff" d="M 47.601562 87.90625 L 47.601562 297.066406 L 70.691406 297.066406 L 70.691406 76.363281 L 47.601562 58.027344 Z M 47.601562 87.90625 " fill-opacity="1" fill-rule="evenodd"/></g><path fill="#ffffff" d="M 188.175781 246.136719 L 270.34375 182.980469 L 270.34375 297.066406 L 293.433594 297.066406 L 293.433594 134.765625 L 270.34375 153.101562 L 188.175781 216.933594 Z M 188.175781 246.136719 " fill-opacity="1" fill-rule="evenodd"/><g fill="#ffffff" fill-opacity="1"><g transform="translate(61.124891, 318.299833)"><g><path d="M 7.15625 0.1875 C 5.90625 0.1875 4.804688 -0.0195312 3.859375 -0.4375 C 2.921875 -0.851562 2.191406 -1.4375 1.671875 -2.1875 C 1.160156 -2.9375 0.90625 -3.816406 0.90625 -4.828125 L 0.90625 -5.234375 C 0.90625 -5.503906 1.039062 -5.640625 1.3125 -5.640625 L 3.84375 -5.640625 C 4.113281 -5.640625 4.25 -5.535156 4.25 -5.328125 L 4.25 -4.984375 C 4.25 -4.347656 4.539062 -3.8125 5.125 -3.375 C 5.707031 -2.9375 6.472656 -2.71875 7.421875 -2.71875 C 8.265625 -2.71875 8.890625 -2.894531 9.296875 -3.25 C 9.703125 -3.613281 9.90625 -4.054688 9.90625 -4.578125 C 9.90625 -4.960938 9.773438 -5.285156 9.515625 -5.546875 C 9.265625 -5.816406 8.921875 -6.050781 8.484375 -6.25 C 8.054688 -6.445312 7.363281 -6.722656 6.40625 -7.078125 C 5.320312 -7.441406 4.410156 -7.816406 3.671875 -8.203125 C 2.929688 -8.585938 2.304688 -9.113281 1.796875 -9.78125 C 1.285156 -10.445312 1.03125 -11.265625 1.03125 -12.234375 C 1.03125 -13.203125 1.273438 -14.046875 1.765625 -14.765625 C 2.265625 -15.484375 2.957031 -16.03125 3.84375 -16.40625 C 4.738281 -16.789062 5.753906 -16.984375 6.890625 -16.984375 C 8.109375 -16.984375 9.195312 -16.769531 10.15625 -16.34375 C 11.113281 -15.914062 11.859375 -15.3125 12.390625 -14.53125 C 12.929688 -13.757812 13.203125 -12.859375 13.203125 -11.828125 L 13.203125 -11.59375 C 13.203125 -11.320312 13.066406 -11.1875 12.796875 -11.1875 L 10.265625 -11.1875 C 9.992188 -11.1875 9.859375 -11.265625 9.859375 -11.421875 L 9.859375 -11.65625 C 9.859375 -12.332031 9.582031 -12.90625 9.03125 -13.375 C 8.476562 -13.851562 7.722656 -14.09375 6.765625 -14.09375 C 5.992188 -14.09375 5.398438 -13.929688 4.984375 -13.609375 C 4.578125 -13.285156 4.375 -12.84375 4.375 -12.28125 C 4.375 -11.882812 4.492188 -11.550781 4.734375 -11.28125 C 4.972656 -11.007812 5.332031 -10.757812 5.8125 -10.53125 C 6.300781 -10.3125 7.0625 -10.023438 8.09375 -9.671875 C 9.207031 -9.253906 10.09375 -8.890625 10.75 -8.578125 C 11.40625 -8.265625 11.992188 -7.785156 12.515625 -7.140625 C 13.035156 -6.503906 13.296875 -5.6875 13.296875 -4.6875 C 13.296875 -3.707031 13.039062 -2.847656 12.53125 -2.109375 C 12.03125 -1.378906 11.320312 -0.8125 10.40625 -0.40625 C 9.488281 -0.0078125 8.40625 0.1875 7.15625 0.1875 Z M 7.15625 0.1875 "/></g></g></g><g fill="#ffffff" fill-opacity="1"><g transform="translate(78.685827, 318.299833)"><g><path d="M 1.875 0 C 1.601562 0 1.46875 -0.132812 1.46875 -0.40625 L 1.46875 -16.390625 C 1.46875 -16.660156 1.601562 -16.796875 1.875 -16.796875 L 4.34375 -16.796875 C 4.550781 -16.796875 4.710938 -16.707031 4.828125 -16.53125 L 10.828125 -6.546875 C 10.859375 -6.484375 10.890625 -6.457031 10.921875 -6.46875 C 10.960938 -6.488281 10.984375 -6.53125 10.984375 -6.59375 L 10.984375 -16.390625 C 10.984375 -16.660156 11.125 -16.796875 11.40625 -16.796875 L 13.921875 -16.796875 C 14.191406 -16.796875 14.328125 -16.660156 14.328125 -16.390625 L 14.328125 -0.40625 C 14.328125 -0.132812 14.191406 0 13.921875 0 L 11.46875 0 C 11.28125 0 11.117188 -0.09375 10.984375 -0.28125 L 4.96875 -10.375 C 4.9375 -10.4375 4.898438 -10.457031 4.859375 -10.4375 C 4.816406 -10.425781 4.796875 -10.382812 4.796875 -10.3125 L 4.828125 -0.40625 C 4.828125 -0.132812 4.691406 0 4.421875 0 Z M 1.875 0 "/></g></g></g><g fill="#ffffff" fill-opacity="1"><g transform="translate(97.829984, 318.299833)"><g><path d="M 7.15625 0.1875 C 5.90625 0.1875 4.804688 -0.0195312 3.859375 -0.4375 C 2.921875 -0.851562 2.191406 -1.4375 1.671875 -2.1875 C 1.160156 -2.9375 0.90625 -3.816406 0.90625 -4.828125 L 0.90625 -5.234375 C 0.90625 -5.503906 1.039062 -5.640625 1.3125 -5.640625 L 3.84375 -5.640625 C 4.113281 -5.640625 4.25 -5.535156 4.25 -5.328125 L 4.25 -4.984375 C 4.25 -4.347656 4.539062 -3.8125 5.125 -3.375 C 5.707031 -2.9375 6.472656 -2.71875 7.421875 -2.71875 C 8.265625 -2.71875 8.890625 -2.894531 9.296875 -3.25 C 9.703125 -3.613281 9.90625 -4.054688 9.90625 -4.578125 C 9.90625 -4.960938 9.773438 -5.285156 9.515625 -5.546875 C 9.265625 -5.816406 8.921875 -6.050781 8.484375 -6.25 C 8.054688 -6.445312 7.363281 -6.722656 6.40625 -7.078125 C 5.320312 -7.441406 4.410156 -7.816406 3.671875 -8.203125 C 2.929688 -8.585938 2.304688 -9.113281 1.796875 -9.78125 C 1.285156 -10.445312 1.03125 -11.265625 1.03125 -12.234375 C 1.03125 -13.203125 1.273438 -14.046875 1.765625 -14.765625 C 2.265625 -15.484375 2.957031 -16.03125 3.84375 -16.40625 C 4.738281 -16.789062 5.753906 -16.984375 6.890625 -16.984375 C 8.109375 -16.984375 9.195312 -16.769531 10.15625 -16.34375 C 11.113281 -15.914062 11.859375 -15.3125 12.390625 -14.53125 C 12.929688 -13.757812 13.203125 -12.859375 13.203125 -11.828125 L 13.203125 -11.59375 C 13.203125 -11.320312 13.066406 -11.1875 12.796875 -11.1875 L 10.265625 -11.1875 C 9.992188 -11.1875 9.859375 -11.265625 9.859375 -11.421875 L 9.859375 -11.65625 C 9.859375 -12.332031 9.582031 -12.90625 9.03125 -13.375 C 8.476562 -13.851562 7.722656 -14.09375 6.765625 -14.09375 C 5.992188 -14.09375 5.398438 -13.929688 4.984375 -13.609375 C 4.578125 -13.285156 4.375 -12.84375 4.375 -12.28125 C 4.375 -11.882812 4.492188 -11.550781 4.734375 -11.28125 C 4.972656 -11.007812 5.332031 -10.757812 5.8125 -10.53125 C 6.300781 -10.3125 7.0625 -10.023438 8.09375 -9.671875 C 9.207031 -9.253906 10.09375 -8.890625 10.75 -8.578125 C 11.40625 -8.265625 11.992188 -7.785156 12.515625 -7.140625 C 13.035156 -6.503906 13.296875 -5.6875 13.296875 -4.6875 C 13.296875 -3.707031 13.039062 -2.847656 12.53125 -2.109375 C 12.03125 -1.378906 11.320312 -0.8125 10.40625 -0.40625 C 9.488281 -0.0078125 8.40625 0.1875 7.15625 0.1875 Z M 7.15625 0.1875 "/></g></g></g><g fill="#ffffff" fill-opacity="1"><g transform="translate(115.390922, 318.299833)"><g/></g></g><g fill="#ffffff" fill-opacity="1"><g transform="translate(123.548464, 318.299833)"><g><path d="M 7.15625 0.1875 C 5.90625 0.1875 4.804688 -0.0195312 3.859375 -0.4375 C 2.921875 -0.851562 2.191406 -1.4375 1.671875 -2.1875 C 1.160156 -2.9375 0.90625 -3.816406 0.90625 -4.828125 L 0.90625 -5.234375 C 0.90625 -5.503906 1.039062 -5.640625 1.3125 -5.640625 L 3.84375 -5.640625 C 4.113281 -5.640625 4.25 -5.535156 4.25 -5.328125 L 4.25 -4.984375 C 4.25 -4.347656 4.539062 -3.8125 5.125 -3.375 C 5.707031 -2.9375 6.472656 -2.71875 7.421875 -2.71875 C 8.265625 -2.71875 8.890625 -2.894531 9.296875 -3.25 C 9.703125 -3.613281 9.90625 -4.054688 9.90625 -4.578125 C 9.90625 -4.960938 9.773438 -5.285156 9.515625 -5.546875 C 9.265625 -5.816406 8.921875 -6.050781 8.484375 -6.25 C 8.054688 -6.445312 7.363281 -6.722656 6.40625 -7.078125 C 5.320312 -7.441406 4.410156 -7.816406 3.671875 -8.203125 C 2.929688 -8.585938 2.304688 -9.113281 1.796875 -9.78125 C 1.285156 -10.445312 1.03125 -11.265625 1.03125 -12.234375 C 1.03125 -13.203125 1.273438 -14.046875 1.765625 -14.765625 C 2.265625 -15.484375 2.957031 -16.03125 3.84375 -16.40625 C 4.738281 -16.789062 5.753906 -16.984375 6.890625 -16.984375 C 8.109375 -16.984375 9.195312 -16.769531 10.15625 -16.34375 C 11.113281 -15.914062 11.859375 -15.3125 12.390625 -14.53125 C 12.929688 -13.757812 13.203125 -12.859375 13.203125 -11.828125 L 13.203125 -11.59375 C 13.203125 -11.320312 13.066406 -11.1875 12.796875 -11.1875 L 10.265625 -11.1875 C 9.992188 -11.1875 9.859375 -11.265625 9.859375 -11.421875 L 9.859375 -11.65625 C 9.859375 -12.332031 9.582031 -12.90625 9.03125 -13.375 C 8.476562 -13.851562 7.722656 -14.09375 6.765625 -14.09375 C 5.992188 -14.09375 5.398438 -13.929688 4.984375 -13.609375 C 4.578125 -13.285156 4.375 -12.84375 4.375 -12.28125 C 4.375 -11.882812 4.492188 -11.550781 4.734375 -11.28125 C 4.972656 -11.007812 5.332031 -10.757812 5.8125 -10.53125 C 6.300781 -10.3125 7.0625 -10.023438 8.09375 -9.671875 C 9.207031 -9.253906 10.09375 -8.890625 10.75 -8.578125 C 11.40625 -8.265625 11.992188 -7.785156 12.515625 -7.140625 C 13.035156 -6.503906 13.296875 -5.6875 13.296875 -4.6875 C 13.296875 -3.707031 13.039062 -2.847656 12.53125 -2.109375 C 12.03125 -1.378906 11.320312 -0.8125 10.40625 -0.40625 C 9.488281 -0.0078125 8.40625 0.1875 7.15625 0.1875 Z M 7.15625 0.1875 "/></g></g></g><g fill="#ffffff" fill-opacity="1"><g transform="translate(141.109399, 318.299833)"><g><path d="M 7.5625 0.1875 C 6.332031 0.1875 5.25 -0.0507812 4.3125 -0.53125 C 3.375 -1.007812 2.644531 -1.679688 2.125 -2.546875 C 1.601562 -3.421875 1.34375 -4.425781 1.34375 -5.5625 L 1.34375 -16.390625 C 1.34375 -16.660156 1.476562 -16.796875 1.75 -16.796875 L 4.3125 -16.796875 C 4.59375 -16.796875 4.734375 -16.660156 4.734375 -16.390625 L 4.734375 -5.546875 C 4.734375 -4.691406 4.988281 -4.003906 5.5 -3.484375 C 6.019531 -2.972656 6.707031 -2.71875 7.5625 -2.71875 C 8.40625 -2.71875 9.085938 -2.972656 9.609375 -3.484375 C 10.128906 -4.003906 10.390625 -4.691406 10.390625 -5.546875 L 10.390625 -16.390625 C 10.390625 -16.660156 10.523438 -16.796875 10.796875 -16.796875 L 13.375 -16.796875 C 13.644531 -16.796875 13.78125 -16.660156 13.78125 -16.390625 L 13.78125 -5.5625 C 13.78125 -4.425781 13.519531 -3.421875 13 -2.546875 C 12.476562 -1.679688 11.75 -1.007812 10.8125 -0.53125 C 9.875 -0.0507812 8.789062 0.1875 7.5625 0.1875 Z M 7.5625 0.1875 "/></g></g></g><g fill="#ffffff" fill-opacity="1"><g transform="translate(159.557909, 318.299833)"><g><path d="M 8.40625 -16.828125 C 9.457031 -16.828125 10.382812 -16.609375 11.1875 -16.171875 C 11.988281 -15.742188 12.609375 -15.132812 13.046875 -14.34375 C 13.484375 -13.550781 13.703125 -12.640625 13.703125 -11.609375 C 13.703125 -10.609375 13.472656 -9.722656 13.015625 -8.953125 C 12.566406 -8.179688 11.925781 -7.582031 11.09375 -7.15625 C 10.269531 -6.738281 9.320312 -6.53125 8.25 -6.53125 L 4.875 -6.53125 C 4.78125 -6.53125 4.734375 -6.484375 4.734375 -6.390625 L 4.734375 -0.40625 C 4.734375 -0.132812 4.59375 0 4.3125 0 L 1.75 0 C 1.476562 0 1.34375 -0.132812 1.34375 -0.40625 L 1.34375 -16.421875 C 1.34375 -16.691406 1.476562 -16.828125 1.75 -16.828125 Z M 7.890625 -9.234375 C 8.628906 -9.234375 9.222656 -9.445312 9.671875 -9.875 C 10.117188 -10.300781 10.34375 -10.859375 10.34375 -11.546875 C 10.34375 -12.242188 10.117188 -12.804688 9.671875 -13.234375 C 9.222656 -13.671875 8.628906 -13.890625 7.890625 -13.890625 L 4.875 -13.890625 C 4.78125 -13.890625 4.734375 -13.84375 4.734375 -13.75 L 4.734375 -9.390625 C 4.734375 -9.285156 4.78125 -9.234375 4.875 -9.234375 Z M 7.890625 -9.234375 "/></g></g></g><g fill="#ffffff" fill-opacity="1"><g transform="translate(177.23879, 318.299833)"><g><path d="M 8.40625 -16.828125 C 9.457031 -16.828125 10.382812 -16.609375 11.1875 -16.171875 C 11.988281 -15.742188 12.609375 -15.132812 13.046875 -14.34375 C 13.484375 -13.550781 13.703125 -12.640625 13.703125 -11.609375 C 13.703125 -10.609375 13.472656 -9.722656 13.015625 -8.953125 C 12.566406 -8.179688 11.925781 -7.582031 11.09375 -7.15625 C 10.269531 -6.738281 9.320312 -6.53125 8.25 -6.53125 L 4.875 -6.53125 C 4.78125 -6.53125 4.734375 -6.484375 4.734375 -6.390625 L 4.734375 -0.40625 C 4.734375 -0.132812 4.59375 0 4.3125 0 L 1.75 0 C 1.476562 0 1.34375 -0.132812 1.34375 -0.40625 L 1.34375 -16.421875 C 1.34375 -16.691406 1.476562 -16.828125 1.75 -16.828125 Z M 7.890625 -9.234375 C 8.628906 -9.234375 9.222656 -9.445312 9.671875 -9.875 C 10.117188 -10.300781 10.34375 -10.859375 10.34375 -11.546875 C 10.34375 -12.242188 10.117188 -12.804688 9.671875 -13.234375 C 9.222656 -13.671875 8.628906 -13.890625 7.890625 -13.890625 L 4.875 -13.890625 C 4.78125 -13.890625 4.734375 -13.84375 4.734375 -13.75 L 4.734375 -9.390625 C 4.734375 -9.285156 4.78125 -9.234375 4.875 -9.234375 Z M 7.890625 -9.234375 "/></g></g></g><g fill="#ffffff" fill-opacity="1"><g transform="translate(194.91967, 318.299833)"><g><path d="M 7.4375 0.265625 C 6.1875 0.265625 5.085938 0.0078125 4.140625 -0.5 C 3.191406 -1.007812 2.453125 -1.722656 1.921875 -2.640625 C 1.390625 -3.566406 1.125 -4.628906 1.125 -5.828125 L 1.125 -10.96875 C 1.125 -12.15625 1.390625 -13.203125 1.921875 -14.109375 C 2.453125 -15.023438 3.191406 -15.734375 4.140625 -16.234375 C 5.085938 -16.734375 6.1875 -16.984375 7.4375 -16.984375 C 8.707031 -16.984375 9.816406 -16.734375 10.765625 -16.234375 C 11.710938 -15.734375 12.453125 -15.023438 12.984375 -14.109375 C 13.515625 -13.203125 13.78125 -12.15625 13.78125 -10.96875 L 13.78125 -5.828125 C 13.78125 -4.628906 13.515625 -3.566406 12.984375 -2.640625 C 12.453125 -1.710938 11.710938 -0.992188 10.765625 -0.484375 C 9.816406 0.015625 8.707031 0.265625 7.4375 0.265625 Z M 7.4375 -2.640625 C 8.320312 -2.640625 9.035156 -2.914062 9.578125 -3.46875 C 10.117188 -4.03125 10.390625 -4.78125 10.390625 -5.71875 L 10.390625 -10.984375 C 10.390625 -11.921875 10.117188 -12.671875 9.578125 -13.234375 C 9.046875 -13.804688 8.332031 -14.09375 7.4375 -14.09375 C 6.5625 -14.09375 5.851562 -13.804688 5.3125 -13.234375 C 4.78125 -12.671875 4.515625 -11.921875 4.515625 -10.984375 L 4.515625 -5.71875 C 4.515625 -4.78125 4.78125 -4.03125 5.3125 -3.46875 C 5.851562 -2.914062 6.5625 -2.640625 7.4375 -2.640625 Z M 7.4375 -2.640625 "/></g></g></g><g fill="#ffffff" fill-opacity="1"><g transform="translate(213.176269, 318.299833)"><g><path d="M 10.78125 0 C 10.570312 0 10.410156 -0.101562 10.296875 -0.3125 L 7.34375 -6.84375 C 7.3125 -6.914062 7.253906 -6.953125 7.171875 -6.953125 L 4.984375 -6.953125 C 4.890625 -6.953125 4.84375 -6.90625 4.84375 -6.8125 L 4.84375 -0.40625 C 4.84375 -0.132812 4.707031 0 4.4375 0 L 1.875 0 C 1.601562 0 1.46875 -0.132812 1.46875 -0.40625 L 1.46875 -16.421875 C 1.46875 -16.691406 1.601562 -16.828125 1.875 -16.828125 L 8.609375 -16.828125 C 9.640625 -16.828125 10.539062 -16.613281 11.3125 -16.1875 C 12.09375 -15.757812 12.691406 -15.160156 13.109375 -14.390625 C 13.535156 -13.628906 13.75 -12.753906 13.75 -11.765625 C 13.75 -10.671875 13.476562 -9.734375 12.9375 -8.953125 C 12.394531 -8.171875 11.644531 -7.617188 10.6875 -7.296875 C 10.632812 -7.273438 10.597656 -7.242188 10.578125 -7.203125 C 10.566406 -7.171875 10.578125 -7.140625 10.609375 -7.109375 L 13.78125 -0.484375 C 13.820312 -0.421875 13.84375 -0.347656 13.84375 -0.265625 C 13.84375 -0.179688 13.8125 -0.113281 13.75 -0.0625 C 13.6875 -0.0195312 13.597656 0 13.484375 0 Z M 4.984375 -13.890625 C 4.890625 -13.890625 4.84375 -13.84375 4.84375 -13.75 L 4.84375 -9.71875 C 4.84375 -9.625 4.890625 -9.578125 4.984375 -9.578125 L 8.109375 -9.578125 C 8.785156 -9.578125 9.332031 -9.769531 9.75 -10.15625 C 10.175781 -10.550781 10.390625 -11.070312 10.390625 -11.71875 C 10.390625 -12.351562 10.175781 -12.875 9.75 -13.28125 C 9.332031 -13.6875 8.785156 -13.890625 8.109375 -13.890625 Z M 4.984375 -13.890625 "/></g></g></g><g fill="#ffffff" fill-opacity="1"><g transform="translate(231.264948, 318.299833)"><g><path d="M 12.9375 -16.796875 C 13.207031 -16.796875 13.34375 -16.660156 13.34375 -16.390625 L 13.34375 -14.28125 C 13.34375 -14.007812 13.207031 -13.875 12.9375 -13.875 L 8.78125 -13.875 C 8.6875 -13.875 8.640625 -13.828125 8.640625 -13.734375 L 8.640625 -0.40625 C 8.640625 -0.132812 8.503906 0 8.234375 0 L 5.65625 0 C 5.382812 0 5.25 -0.132812 5.25 -0.40625 L 5.25 -13.734375 C 5.25 -13.828125 5.203125 -13.875 5.109375 -13.875 L 1.078125 -13.875 C 0.804688 -13.875 0.671875 -14.007812 0.671875 -14.28125 L 0.671875 -16.390625 C 0.671875 -16.660156 0.804688 -16.796875 1.078125 -16.796875 Z M 12.9375 -16.796875 "/></g></g></g><g fill="#ffffff" fill-opacity="1"><g transform="translate(248.657963, 318.299833)"><g/></g></g><g fill="#ffffff" fill-opacity="1"><g transform="translate(256.815506, 318.299833)"><g><path d="M 12.9375 -16.796875 C 13.207031 -16.796875 13.34375 -16.660156 13.34375 -16.390625 L 13.34375 -14.28125 C 13.34375 -14.007812 13.207031 -13.875 12.9375 -13.875 L 8.78125 -13.875 C 8.6875 -13.875 8.640625 -13.828125 8.640625 -13.734375 L 8.640625 -0.40625 C 8.640625 -0.132812 8.503906 0 8.234375 0 L 5.65625 0 C 5.382812 0 5.25 -0.132812 5.25 -0.40625 L 5.25 -13.734375 C 5.25 -13.828125 5.203125 -13.875 5.109375 -13.875 L 1.078125 -13.875 C 0.804688 -13.875 0.671875 -14.007812 0.671875 -14.28125 L 0.671875 -16.390625 C 0.671875 -16.660156 0.804688 -16.796875 1.078125 -16.796875 Z M 12.9375 -16.796875 "/></g></g></g><g fill="#ffffff" fill-opacity="1"><g transform="translate(274.208533, 318.299833)"><g><path d="M 13.125 -14.296875 C 13.125 -14.023438 12.988281 -13.890625 12.71875 -13.890625 L 4.984375 -13.890625 C 4.890625 -13.890625 4.84375 -13.84375 4.84375 -13.75 L 4.84375 -10.078125 C 4.84375 -9.984375 4.890625 -9.9375 4.984375 -9.9375 L 10.015625 -9.9375 C 10.285156 -9.9375 10.421875 -9.800781 10.421875 -9.53125 L 10.421875 -7.4375 C 10.421875 -7.164062 10.285156 -7.03125 10.015625 -7.03125 L 4.984375 -7.03125 C 4.890625 -7.03125 4.84375 -6.984375 4.84375 -6.890625 L 4.84375 -3.046875 C 4.84375 -2.953125 4.890625 -2.90625 4.984375 -2.90625 L 12.71875 -2.90625 C 12.988281 -2.90625 13.125 -2.769531 13.125 -2.5 L 13.125 -0.40625 C 13.125 -0.132812 12.988281 0 12.71875 0 L 1.875 0 C 1.601562 0 1.46875 -0.132812 1.46875 -0.40625 L 1.46875 -16.390625 C 1.46875 -16.660156 1.601562 -16.796875 1.875 -16.796875 L 12.71875 -16.796875 C 12.988281 -16.796875 13.125 -16.660156 13.125 -16.390625 Z M 13.125 -14.296875 "/></g></g></g><g fill="#ffffff" fill-opacity="1"><g transform="translate(291.577573, 318.299833)"><g><path d="M 12.265625 0 C 12.035156 0 11.882812 -0.113281 11.8125 -0.34375 L 11.140625 -2.5625 C 11.117188 -2.644531 11.066406 -2.6875 10.984375 -2.6875 L 5.109375 -2.6875 C 5.023438 -2.6875 4.976562 -2.644531 4.96875 -2.5625 L 4.296875 -0.34375 C 4.210938 -0.113281 4.0625 0 3.84375 0 L 1.0625 0 C 0.914062 0 0.804688 -0.0390625 0.734375 -0.125 C 0.671875 -0.21875 0.664062 -0.328125 0.71875 -0.453125 L 5.828125 -16.46875 C 5.910156 -16.6875 6.0625 -16.796875 6.28125 -16.796875 L 9.8125 -16.796875 C 10.039062 -16.796875 10.191406 -16.6875 10.265625 -16.46875 L 15.390625 -0.453125 C 15.398438 -0.421875 15.40625 -0.375 15.40625 -0.3125 C 15.40625 -0.21875 15.375 -0.140625 15.3125 -0.078125 C 15.25 -0.0234375 15.160156 0 15.046875 0 Z M 5.8125 -5.46875 C 5.789062 -5.351562 5.828125 -5.296875 5.921875 -5.296875 L 10.171875 -5.296875 C 10.265625 -5.296875 10.304688 -5.351562 10.296875 -5.46875 L 8.140625 -12.796875 C 8.117188 -12.859375 8.085938 -12.890625 8.046875 -12.890625 C 8.003906 -12.890625 7.96875 -12.859375 7.9375 -12.796875 Z M 5.8125 -5.46875 "/></g></g></g><g fill="#ffffff" fill-opacity="1"><g transform="translate(311.033581, 318.299833)"><g><path d="M 1.890625 0 C 1.617188 0 1.484375 -0.132812 1.484375 -0.40625 L 1.484375 -16.390625 C 1.484375 -16.660156 1.617188 -16.796875 1.890625 -16.796875 L 4.46875 -16.796875 C 4.675781 -16.796875 4.832031 -16.707031 4.9375 -16.53125 L 8.421875 -10.921875 C 8.453125 -10.867188 8.488281 -10.84375 8.53125 -10.84375 C 8.570312 -10.84375 8.597656 -10.867188 8.609375 -10.921875 L 12.140625 -16.53125 C 12.253906 -16.707031 12.414062 -16.796875 12.625 -16.796875 L 15.1875 -16.796875 C 15.457031 -16.796875 15.59375 -16.660156 15.59375 -16.390625 L 15.59375 -0.40625 C 15.59375 -0.132812 15.457031 0 15.1875 0 L 12.625 0 C 12.351562 0 12.21875 -0.132812 12.21875 -0.40625 L 12.21875 -10.796875 C 12.21875 -10.859375 12.195312 -10.894531 12.15625 -10.90625 C 12.113281 -10.925781 12.078125 -10.90625 12.046875 -10.84375 L 9.625 -6.890625 C 9.507812 -6.710938 9.347656 -6.625 9.140625 -6.625 L 7.921875 -6.625 C 7.710938 -6.625 7.550781 -6.710938 7.4375 -6.890625 L 5.046875 -10.84375 C 5.003906 -10.90625 4.960938 -10.925781 4.921875 -10.90625 C 4.890625 -10.894531 4.875 -10.859375 4.875 -10.796875 L 4.875 -0.40625 C 4.875 -0.132812 4.738281 0 4.46875 0 Z M 1.890625 0 "/></g></g></g></svg>