<svg xmlns="http://www.w3.org/2000/svg" xmlns:xlink="http://www.w3.org/1999/xlink" width="500" zoomAndPan="magnify" viewBox="0 0 375 374.999991" height="500" preserveAspectRatio="xMidYMid meet" version="1.0"><defs><clipPath id="b08d2861ee"><path d="M 116 80 L 327.351562 80 L 327.351562 316 L 116 316 Z M 116 80 " clip-rule="nonzero"/></clipPath><clipPath id="b90b9204dc"><path d="M 47.601562 76 L 71 76 L 71 316 L 47.601562 316 Z M 47.601562 76 " clip-rule="nonzero"/></clipPath></defs><g clip-path="url(#b08d2861ee)"><path fill="#ffffff" d="M 304.296875 128.414062 L 304.296875 315.164062 L 327.386719 315.164062 L 327.386719 80.878906 L 304.296875 99.214844 L 218.734375 165.085938 L 211.941406 170.519531 L 199.71875 180.023438 L 190.890625 186.816406 L 188.175781 184.777344 L 116.871094 129.09375 L 116.871094 158.972656 L 171.195312 201.757812 L 188.175781 214.660156 L 190.890625 216.695312 L 209.90625 201.757812 L 211.941406 200.398438 L 218.734375 194.964844 L 237.746094 180.023438 Z M 304.296875 128.414062 " fill-opacity="1" fill-rule="evenodd"/></g><path fill="#ffffff" d="M 82.238281 103.289062 L 82.238281 315.164062 L 106.003906 315.164062 L 106.003906 107.363281 L 188.175781 171.195312 L 188.175781 141.316406 L 106.003906 78.160156 L 82.238281 59.828125 Z M 82.238281 103.289062 " fill-opacity="1" fill-rule="evenodd"/><g clip-path="url(#b90b9204dc)"><path fill="#ffffff" d="M 47.601562 106.003906 L 47.601562 315.164062 L 70.691406 315.164062 L 70.691406 94.460938 L 47.601562 76.125 Z M 47.601562 106.003906 " fill-opacity="1" fill-rule="evenodd"/></g><path fill="#ffffff" d="M 188.175781 264.234375 L 270.34375 201.078125 L 270.34375 315.164062 L 293.433594 315.164062 L 293.433594 152.863281 L 270.34375 171.195312 L 188.175781 235.03125 Z M 188.175781 264.234375 " fill-opacity="1" fill-rule="evenodd"/></svg>